<svg xmlns="http://www.w3.org/2000/svg" width="490.7" height="169.412" viewBox="0 0 490.7 169.412"><path fill="#EDEDED" d="M53.921,1.047c13.292,0,24.174,10.306,25.097,23.361c6.028,1.424,10.516,6.834,10.516,13.298 c0,7.547-6.119,13.665-13.666,13.665c-0.395,0-0.786-0.021-1.171-0.053c-3.218,3.159-7.628,5.112-12.495,5.112 c-2.635,0-5.134-0.577-7.386-1.603c-3.122,2.685-7.18,4.312-11.621,4.312c-6.118,0-11.515-3.082-14.728-7.775 c-5.347-0.089-10.101-2.6-13.214-6.485c-1.189,0.417-2.466,0.646-3.797,0.646C5.129,45.525,0,40.396,0,34.069 c0-6.327,5.129-11.457,11.457-11.457c1.331,0,2.608,0.229,3.797,0.647c3.171-3.956,8.041-6.493,13.505-6.493 c0.606,0,1.206,0.032,1.796,0.093C34.265,7.593,43.328,1.047,53.921,1.047z"/><path fill="#F5F5F5" d="M32.024,29.512c0.464-3.135,3.002-5.857,6.097-6.539c3.095-0.683,6.542,0.722,8.281,3.371 c-2.376-1.146-4.939-1.153-7.533-0.675C36.275,26.147,33.835,27.594,32.024,29.512z"/><path fill="#D9D9D9" d="M60.181 45.282c-1.36 2.861-4.582 4.724-7.741 4.474-3.159-.251-6.046-2.6-6.936-5.642 1.938 1.788 4.388 2.545 7.008 2.845C55.133 47.258 57.889 46.588 60.181 45.282zM34.424 44.08c-.947 1.996-3.193 3.294-5.395 3.119-2.201-.176-4.213-1.813-4.833-3.932 1.351 1.246 3.058 1.772 4.884 1.981C30.906 45.459 32.827 44.99 34.424 44.08z"/><path fill="#F5F5F5" d="M41.663 4.234c3.627-2.027 7.807-3.188 12.258-3.188 13.292 0 24.174 10.306 25.097 23.361 3.59.848 6.632 3.109 8.507 6.165-2.947-3.02-7.506-4.425-11.632-3.481.177-9.082-5.499-17.809-13.688-21.737C55.862 2.311 48.376 2.082 41.663 4.234zM1.992 27.613c2.063-3.019 5.532-5.001 9.464-5.001 1.331 0 2.608.229 3.797.647 3.171-3.956 8.041-6.493 13.505-6.493.426 0 .845.021 1.263.052 3.848 1.561 7.197 4.382 9.192 8.031-2.485-3.432-7.058-4.223-11.269-3.748-4.21.474-8.072 2.57-11.521 5.032-.814-1.518-2.508-1.838-4.224-1.991C8.513 23.815 4.75 25.162 1.992 27.613z"/><path fill="#D9D9D9" d="M16.08,45.828c4.58,1.551,9.461,1.383,14.095-0.095c1.691,4.388,5.994,7.646,10.674,8.086 c4.68,0.441,9.169-1.619,11.649-5.611c3.076,3.672,8.104,5.602,12.846,4.931c4.743-0.671,9.536-3.518,11.472-7.898 c-0.433,2.103-1.134,4.15-2.075,6.081c-0.015-0.003-0.03-0.003-0.045-0.003c-3.218,3.159-7.628,5.112-12.495,5.112 c-2.635,0-5.134-0.577-7.386-1.603c-3.122,2.685-7.18,4.312-11.621,4.312c-6.118,0-11.515-3.082-14.728-7.775 C23.573,51.283,19.177,49.166,16.08,45.828z"/><g><path fill="#EDEDED" d="M421.708,18.196c-17.007,0-30.932,13.188-32.112,29.893c-7.711,1.82-13.454,8.745-13.454,17.014 c0,9.656,7.83,17.484,17.485,17.484c0.505,0,1.006-0.026,1.499-0.067c4.118,4.042,9.759,6.54,15.988,6.54 c3.371,0,6.566-0.737,9.449-2.049c3.993,3.435,9.186,5.515,14.866,5.515c7.829,0,14.735-3.94,18.846-9.949 c6.84-0.112,12.923-3.324,16.907-8.297c1.521,0.535,3.156,0.828,4.858,0.828c8.097,0,14.658-6.562,14.658-14.658 c0-8.096-6.562-14.659-14.658-14.659c-1.702,0-3.338,0.293-4.858,0.828c-4.056-5.063-10.288-8.309-17.28-8.309 c-0.776,0-1.543,0.042-2.296,0.12C446.856,26.572,435.263,18.196,421.708,18.196z"/><path fill="#F5F5F5" d="M449.725,54.617c-0.594-4.01-3.842-7.495-7.8-8.366c-3.961-0.873-8.372,0.923-10.597,4.314 c3.04-1.467,6.319-1.478,9.639-0.864C444.287,50.313,447.409,52.164,449.725,54.617z"/><path fill="#D9D9D9" d="M413.698 74.796c1.74 3.662 5.863 6.045 9.905 5.724 4.043-.321 7.738-3.327 8.874-7.219-2.479 2.289-5.613 3.256-8.966 3.642C420.158 77.324 416.631 76.465 413.698 74.796zM446.654 73.26c1.212 2.553 4.086 4.212 6.904 3.987 2.814-.223 5.39-2.317 6.183-5.029-1.728 1.597-3.911 2.27-6.249 2.535C451.156 75.022 448.698 74.423 446.654 73.26z"/><path fill="#F5F5F5" d="M437.393 22.276c-4.642-2.595-9.987-4.08-15.685-4.08-17.007 0-30.932 13.188-32.112 29.893-4.592 1.084-8.485 3.979-10.884 7.887 3.771-3.862 9.603-5.662 14.884-4.454-.227-11.619 7.035-22.785 17.513-27.813C419.226 19.815 428.802 19.523 437.393 22.276zM488.151 52.189c-2.642-3.863-7.079-6.399-12.109-6.399-1.702 0-3.338.293-4.858.828-4.056-5.063-10.288-8.309-17.28-8.309-.544 0-1.08.029-1.615.067-4.924 1.997-9.208 5.607-11.761 10.276 3.18-4.391 9.03-5.402 14.419-4.798 5.387.606 10.325 3.29 14.738 6.44 1.043-1.941 3.212-2.351 5.406-2.548C479.807 47.33 484.623 49.053 488.151 52.189z"/><path fill="#D9D9D9" d="M470.125,75.495c-5.858,1.984-12.104,1.769-18.032-0.121c-2.164,5.612-7.672,9.783-13.658,10.347 c-5.988,0.564-11.731-2.072-14.905-7.182c-3.935,4.698-10.369,7.168-16.436,6.31c-6.07-0.859-12.202-4.499-14.679-10.105 c0.555,2.69,1.451,5.31,2.654,7.779c0.021-0.002,0.039-0.002,0.058-0.003c4.118,4.042,9.759,6.54,15.988,6.54 c3.371,0,6.566-0.737,9.449-2.049c3.993,3.435,9.186,5.515,14.866,5.515c7.829,0,14.735-3.94,18.846-9.949 C460.54,82.474,466.164,79.767,470.125,75.495z"/></g><g><path fill="#5B453B" d="M121.534 146.451H122.055V155.446H121.534zM136.891 146.451H137.41299999999998V155.558H136.891z"/><path fill="#E4E2D6" d="M141.408,165.907c0,1.937-2.02,3.505-4.513,3.505h-14.9c-2.493,0-4.512-1.568-4.512-3.505v-7.344 c0-1.938,2.02-3.506,4.512-3.506c0,0,2.936,1.168,8.094,1.168s6.806-1.168,6.806-1.168c2.493,0,4.513,1.568,4.513,3.506V165.907z"/><path fill="#BFBBAC" d="M130.978,164.656c-3.797,1.423-9.163,2.728-13.242,2.401c0.613,1.37,2.286,2.354,4.26,2.354h14.9 c2.493,0,4.513-1.568,4.513-3.505v-7.033C140.333,159.888,136.802,162.471,130.978,164.656z"/><path fill="#BFBBAC" d="M117.483,158.897c0,0,1.904,1.167,3.865-0.169c0,0,2.913,1.948,5.099-0.055c0,0,3.307,2.003,5.604-0.055 c0,0,2.465,1.837,4.931,0.109c0,0,1.792,2.06,4.483,0.055v0.836c-2.394,2.004-4.483-0.055-4.483-0.055 c-2.465,1.724-4.931-0.11-4.931-0.11c-2.297,2.056-5.604,0.054-5.604,0.054c-2.186,2.002-5.099,0.057-5.099,0.057 c-1.961,1.334-3.865,0.167-3.865,0.167V158.897z"/><g fill="#303947"><path d="M121.744,159.918c0,0.015,0,0.03,0,0.044c0,0.352-0.154,0.636-0.346,0.636 c-0.191,0-0.345-0.284-0.345-0.636c0-0.024,0.001-0.051,0.002-0.077c-0.817,0.288-1.464,1.668-1.464,2.56 c0,0.997,0.775,1.805,1.731,1.805c0.955,0,1.729-0.808,1.729-1.805C123.052,161.584,122.506,160.267,121.744,159.918z"/><path d="M121.398,160.598c0.192,0,0.346-0.284,0.346-0.636c0-0.014,0-0.029,0-0.044 c-0.014-0.328-0.164-0.588-0.346-0.588c-0.175,0-0.321,0.241-0.343,0.555c-0.001,0.026-0.002,0.053-0.002,0.077 C121.053,160.313,121.207,160.598,121.398,160.598z"/></g><g fill="#303947"><path d="M126.807,159.918c0,0.015,0.001,0.03,0.001,0.044c0,0.352-0.155,0.636-0.345,0.636 c-0.191,0-0.346-0.284-0.346-0.636c0-0.024,0.001-0.051,0.003-0.077c-0.817,0.288-1.464,1.668-1.464,2.56 c0,0.997,0.775,1.805,1.73,1.805c0.956,0,1.731-0.808,1.731-1.805C128.116,161.584,127.569,160.267,126.807,159.918z"/><path d="M126.462,160.598c0.19,0,0.345-0.284,0.345-0.636c0-0.014-0.001-0.029-0.001-0.044 c-0.012-0.328-0.162-0.588-0.344-0.588c-0.176,0-0.322,0.241-0.343,0.555c-0.002,0.026-0.003,0.053-0.003,0.077 C126.116,160.313,126.271,160.598,126.462,160.598z"/></g><g fill="#303947"><path d="M132.427,159.918c0,0.015,0.001,0.03,0.001,0.044c0,0.352-0.156,0.636-0.347,0.636 s-0.345-0.284-0.345-0.636c0-0.024,0.001-0.051,0.002-0.077c-0.816,0.288-1.463,1.668-1.463,2.56c0,0.997,0.774,1.805,1.73,1.805 s1.73-0.808,1.73-1.805C133.735,161.584,133.188,160.267,132.427,159.918z"/><path d="M132.082,160.598c0.191,0,0.347-0.284,0.347-0.636c0-0.014-0.001-0.029-0.001-0.044 c-0.013-0.328-0.162-0.588-0.345-0.588c-0.176,0-0.321,0.241-0.343,0.555c-0.001,0.026-0.002,0.053-0.002,0.077 C131.736,160.313,131.891,160.598,132.082,160.598z"/></g><g fill="#303947"><path d="M137.358,159.918c0,0.015,0.001,0.03,0.001,0.044c0,0.352-0.154,0.636-0.347,0.636 c-0.19,0-0.346-0.284-0.346-0.636c0-0.024,0.001-0.051,0.003-0.077c-0.818,0.288-1.464,1.668-1.464,2.56 c0,0.997,0.775,1.805,1.73,1.805c0.956,0,1.731-0.808,1.731-1.805C138.667,161.584,138.119,160.267,137.358,159.918z"/><path d="M137.012,160.598c0.192,0,0.347-0.284,0.347-0.636c0-0.014,0-0.029-0.001-0.044 c-0.014-0.328-0.164-0.588-0.346-0.588c-0.176,0-0.32,0.241-0.342,0.555c-0.002,0.026-0.003,0.053-0.003,0.077 C136.667,160.313,136.822,160.598,137.012,160.598z"/></g><path fill="#303947" d="M121.286 126.423c0 0-8.351-15.721-21.398-37.903-.112-.189-.223-.379-.334-.57C94.317 79.062 90.1 69.939 87.328 61c-2.763-8.912-4.086-17.641-3.545-25.776.289-4.348 1.109-8.528 2.529-12.474 1.621-4.502 3.821-7.906 6.219-10.47-1.788.208-11.899 2.278-18.71 22.71-.026.079-.05.157-.076.233C70.872 43.998 70.843 52.768 72.724 61c2.376 10.393 7.795 19.923 14.378 27.52 1.515 1.75 3.09 3.397 4.706 4.928 14.24 13.489 26.979 34.724 26.979 34.724s2.234.149 3.286-1.179C121.626 126.743 121.286 126.423 121.286 126.423zM184.548 35.224c-.025-.076-.05-.154-.076-.233-6.81-20.432-16.92-22.502-18.708-22.71 2.398 2.563 4.598 5.968 6.218 10.47 1.421 3.945 2.241 8.126 2.53 12.474.541 8.136-.783 16.864-3.545 25.776-2.771 8.939-6.989 18.062-12.224 26.949-.112.191-.223.381-.335.57-13.047 22.183-21.398 37.903-21.398 37.903s-.34.32-.788.569c1.052 1.328 3.286 1.179 3.286 1.179s12.74-21.234 26.979-34.724c1.615-1.53 3.191-3.178 4.706-4.928 6.584-7.597 12.003-17.127 14.379-27.52C187.451 52.768 187.421 43.998 184.548 35.224z"/><path fill="#FFDD50" d="M83.714 36.554c-.049 1.163-.06 2.341-.035 3.528l.065 1.772c.061 1.205.158 2.419.29 3.645l.212 1.772c.147 1.103.32 2.213.521 3.329l.182.99.128.634c.052.256.103.51.157.764l.396 1.771c.483 2.066 1.049 4.146 1.698 6.24 2.772 8.939 6.989 18.062 12.225 26.949.112.191.223.381.334.57 13.048 22.183 21.398 37.903 21.398 37.903s.341.32.788.569c.695.385 1.647.589 1.974-.876-.312-.242-.513-.443-.513-.443s-6.564-20.961-13.063-37.153c-.561-1.397-1.122-2.758-1.676-4.065-2.971-7.002-6.076-14.814-8.207-23.454-.094-.381-.183-.764-.274-1.146l-.399-1.773c-.063-.289-.122-.582-.182-.873l-.348-1.771c-.188-1.011-.36-2.032-.517-3.063h-.051-.058v-.736c-.118-.829-.223-1.663-.319-2.506v.718l-.112-1.771c-.119-1.183-.213-2.377-.284-3.582l-.082-1.774c-.04-1.073-.057-2.16-.054-3.256l.026-1.772c.021-.818.05-1.64.097-2.469.253-4.492.895-9.149 2.019-13.973 1.984-8.513 5.335-13.524 8.932-16.422-1.705-.309-9.837.376-16.452 7.451-2.398 2.563-4.599 5.968-6.219 10.47-1.42 3.945-2.24 8.126-2.529 12.474M174.822 35.224c-.289-4.348-1.109-8.528-2.53-12.474-1.621-4.502-3.82-7.906-6.219-10.47-6.615-7.073-14.747-7.76-16.451-7.451 3.596 2.897 6.947 7.909 8.93 16.422 1.124 4.823 1.765 9.48 2.019 13.973.526 9.294-.61 17.88-2.558 25.776-2.129 8.64-5.235 16.452-8.205 23.454-.556 1.308-1.116 2.668-1.677 4.065-6.5 16.192-13.063 37.153-13.063 37.153s-.203.201-.514.443c.327 1.466 1.279 1.261 1.975.876.447-.249.788-.569.788-.569s8.352-15.721 21.399-37.903c.111-.189.223-.379.334-.57 5.234-8.888 9.453-18.01 12.225-26.949C174.039 52.088 175.363 43.359 174.822 35.224z"/><path fill="#303947" d="M126.282 124.923c-1.074-12.99-4.131-24.455-7.149-36.403-2.19-8.666-4.358-17.585-5.736-27.52-1.086-7.836-1.68-16.303-1.403-25.776.014-.491.029-.984.049-1.481.817-21.256 6.613-29.282 11.714-32.188-2.221-.522-8.832-1.512-14.774 3.274-3.597 2.897-6.948 7.909-8.932 16.422-1.124 4.823-1.765 9.48-2.019 13.973-.525 9.294.609 17.88 2.556 25.776 2.131 8.64 5.236 16.452 8.207 23.454.554 1.308 1.115 2.668 1.676 4.065 6.498 16.192 13.063 37.153 13.063 37.153s.202.201.513.443c.799.621 2.316 1.507 2.985-.074C126.563 125.521 126.282 124.923 126.282 124.923zM160.572 35.224c-.254-4.492-.895-9.149-2.019-13.973-1.983-8.513-5.334-13.524-8.93-16.422-5.944-4.786-12.555-3.797-14.775-3.274 5.101 2.905 10.896 10.932 11.714 32.188.02.497.035.99.049 1.481.276 9.474-.317 17.94-1.404 25.776-1.376 9.935-3.545 18.854-5.734 27.52-3.018 11.948-6.076 23.413-7.149 36.403 0 0-.281.598-.751 1.119.669 1.581 2.187.695 2.985.074.312-.242.514-.443.514-.443s6.563-20.961 13.063-37.153c.561-1.397 1.121-2.758 1.677-4.065 2.97-7.002 6.075-14.814 8.205-23.454C159.962 53.104 161.098 44.518 160.572 35.224z"/><path fill="#FFDD50" d="M146.61,35.224c-0.014-0.491-0.029-0.984-0.049-1.481c-0.818-21.256-6.614-29.282-11.714-32.188 c-1.075-0.611-2.118-0.997-3.078-1.231c0.003-0.018,0.005-0.038,0.009-0.057c0,0-0.968-0.291-2.477-0.265 c-1.506-0.026-2.476,0.265-2.476,0.265c0.003,0.019,0.006,0.039,0.01,0.057c-0.961,0.234-2.003,0.62-3.078,1.231 c-5.102,2.905-10.897,10.932-11.714,32.188c-0.02,0.497-0.035,0.99-0.049,1.481c-0.277,9.474,0.316,17.94,1.403,25.776 c1.378,9.935,3.546,18.854,5.736,27.52c3.019,11.948,6.076,23.413,7.149,36.403c0,0,0.281,0.598,0.75,1.119 c0.549,0.608,1.354,1.119,2.27,0.459c0.915,0.66,1.72,0.149,2.268-0.459c0.47-0.521,0.751-1.119,0.751-1.119 c1.073-12.99,4.131-24.455,7.149-36.403c2.189-8.666,4.358-17.585,5.734-27.52C146.293,53.164,146.886,44.697,146.61,35.224z"/><g><path opacity=".1" fill="#999999" d="M179.813,25.335c0,0,11.241,34.725-28.729,57.958c-39.97,23.232-74.445-13.24-74.445-13.24 s2.499,10.241,13.491,21.234c10.991,10.991,27.729,33.474,28.728,36.973c0,0,12.491-3.748,19.985,0 c0,0,13.49-21.735,26.979-35.974C179.311,78.047,196.048,54.813,179.813,25.335z"/></g><g><g fill="#5B453B"><path d="M122.589 146.845c-.157 0-.288-.127-.292-.285-.184-9.619-1.187-14.999-1.197-15.051-.03-.16.074-.312.231-.341.16-.029.311.073.342.231.01.054 1.021 5.477 1.207 15.147.003.162-.125.295-.286.298C122.593 146.845 122.59 146.845 122.589 146.845zM125.76 146.511c-.005 0-.011 0-.017-.001-.161-.009-.284-.146-.275-.307.353-6.36-.299-14.969-.387-15.479-.038-.143.039-.294.18-.347.15-.055.318.022.374.171.087.234.774 9.2.415 15.688C126.042 146.391 125.913 146.511 125.76 146.511zM129.419 146.051c-.162 0-.292-.132-.292-.292l-.004-15.362c0-.162.13-.291.292-.291l0 0c.161 0 .291.129.291.291l.005 15.362C129.71 145.919 129.58 146.051 129.419 146.051L129.419 146.051zM132.986 146.087c-.144 0-.27-.106-.289-.255-.761-5.944.424-15.195.588-15.462.084-.138.264-.181.4-.097.124.075.17.228.117.355-.163.621-1.266 9.37-.528 15.13.021.159-.092.305-.25.326C133.011 146.087 132.998 146.087 132.986 146.087zM136.276 146.022c-.151 0-.279-.117-.29-.27-.667-9.455.492-15.132.503-15.187.033-.158.185-.261.346-.227.156.032.257.187.225.346-.013.054-1.154 5.659-.493 15.026.01.159-.109.299-.271.31C136.29 146.022 136.282 146.022 136.276 146.022z"/></g><path fill="#303947" d="M118.118,127.104c0,0,10.575-5.491,22.506-0.137c0,0-2.17,3.865-2.847,7.39c0,0-9.762-1.831-16.88,0.677 C120.897,135.033,120.491,131.17,118.118,127.104z"/><path fill="#E8CE8E" d="M120.491,132.663c0,0,7.32-3.256,17.76-0.271l-0.609,2.305c0,0-9.447-2.124-16.745,0.337L120.491,132.663z"/><path opacity=".4" fill="#0E223F" d="M117.599,126.217c0,0,10.776-6.058,23.524,0.116l-0.541,0.751c0,0-10.681-5.541-22.42,0.095 L117.599,126.217z"/><path fill="#BFBBAC" d="M121.374,146.063c0,0,8.69-2.338,16.363-0.178c0,0,1.38,1.078-0.239,2.157c0,0-8.453-1.739-16.006,0.48 C121.492,148.523,119.934,147.323,121.374,146.063z"/></g></g><g><path fill="#EDEDED" d="M160.567,87.943c0,6.928,5.615,12.543,12.542,12.543c1.155,0,2.269-0.17,3.332-0.461 c0.487,8.5,7.533,15.243,16.154,15.243c3.842,0,7.369-1.341,10.145-3.578c2.856,4.593,7.945,7.653,13.752,7.653 c4.935,0,9.351-2.211,12.32-5.694c2.548,1.175,5.384,1.835,8.373,1.835c6.607,0,12.465-3.201,16.116-8.133 c1.236,0.405,2.553,0.633,3.924,0.633c6.927,0,12.541-5.615,12.541-12.542c0-6.928-5.614-12.543-12.541-12.543 c-1.371,0-2.688,0.229-3.924,0.635c-3.651-4.933-9.509-8.133-16.116-8.133c-0.307,0-0.612,0.009-0.914,0.022 c-2.214-6.301-8.212-10.821-15.271-10.821c-2.429,0-4.731,0.539-6.797,1.497c-3.354-6.383-10.041-10.739-17.751-10.739 c-11.067,0-20.04,8.973-20.04,20.041c0,0.152,0.008,0.305,0.011,0.456c-1.056-0.287-2.164-0.456-3.313-0.456 C166.183,75.401,160.567,81.018,160.567,87.943z"/><path fill="#F5F5F5" d="M188.024,81.208c-2.815-2.299-7.069-2.645-10.218-0.832c-3.15,1.812-4.987,5.665-4.415,9.253 c1.129-2.805,3.296-4.794,5.864-6.392C181.823,81.64,185.008,80.98,188.024,81.208z"/><path fill="#D9D9D9" d="M195.277 100.348c1.56 3.284 5.255 5.42 8.878 5.131 3.622-.288 6.934-2.981 7.953-6.47-2.223 2.053-5.031 2.919-8.036 3.263C201.066 102.615 197.906 101.846 195.277 100.348zM222.78 106.438c1.086 2.288 3.661 3.777 6.186 3.575 2.523-.2 4.832-2.077 5.541-4.508-1.546 1.429-3.505 2.034-5.6 2.272C226.813 108.018 224.61 107.481 222.78 106.438z"/><path fill="#F5F5F5" d="M221,64.603c-2.429,0-4.731,0.539-6.797,1.497c-3.354-6.383-10.041-10.739-17.751-10.739 c-11.067,0-20.04,8.973-20.04,20.041c0,0.152,0.008,0.305,0.011,0.456c-1.056-0.287-2.164-0.456-3.313-0.456 c-4.54,0-8.516,2.412-10.718,6.025c1.522-0.901,3.195-1.55,4.937-1.87c4.182-0.774,8.672,0.317,12.032,2.922 c-0.352-5.981,1.525-12.352,5.304-17.001c3.778-4.649,9.884-7.521,15.825-6.753c5.943,0.766,11.349,5.501,12.247,11.423 c3.349-2.787,7.683-4.141,12.031-3.875c1.92,0.116,3.816,0.569,5.588,1.311C227.714,65.707,224.487,64.603,221,64.603z"/><path fill="#D9D9D9" d="M252.382,108.499c-0.002-0.012-0.003-0.024-0.005-0.036c-3.17,3.144-7.623,4.953-12.087,4.914 c-4.463-0.038-8.934-2.099-12.049-5.295c-3.313,3.89-8.862,5.726-13.84,4.581c-4.98-1.146-9.567-4.953-10.85-9.898 c-3.218,4.605-8.971,7.31-14.571,6.851c-4.919-0.403-9.557-3.239-12.254-7.358c1.475,7.419,8.017,13.012,15.869,13.012 c3.842,0,7.369-1.341,10.145-3.578c2.856,4.593,7.945,7.653,13.752,7.653c4.935,0,9.351-2.211,12.32-5.694 c2.548,1.175,5.384,1.835,8.373,1.835C243.265,115.484,248.707,112.774,252.382,108.499z"/></g></svg>